<svg xmlns="http://www.w3.org/2000/svg" viewBox="0 0 706.99 288.37"><defs><style>.cls-1,.cls-2{fill:#ae8532;}.cls-2,.cls-3{fill-rule:evenodd;}.cls-3{fill:#c69a49;}.cls-4{fill:#fff;}</style></defs><g id="katman_2" data-name="katman 2"><g id="katman_1-2" data-name="katman 1"><rect class="cls-1" x="195.34" y="95.18" width="7.87" height="32.46"/><polygon class="cls-2" points="210.13 127.65 209.64 80 236.48 54.76 272.16 76.46 272.16 127.65 260.27 127.65 259.95 79.35 241.47 69.87 242.27 127.65 229.41 127.65 228.61 71.8 216.23 84.66 216.23 127.65 210.13 127.65"/><rect class="cls-1" x="265.09" y="41.5" width="5.79" height="23.85"/><polygon class="cls-2" points="281.24 126.08 288.88 120.38 289.2 36.4 299.64 32.87 300.13 112.18 310.97 107.44 310.65 20.17 281.32 31.98 281.24 126.08"/><polygon class="cls-2" points="329.05 102.9 336.69 101.65 337.01 19.53 349.79 14.14 349.95 100.69 365.7 101.41 366.58 19.69 408.04 19.93 408.37 38.73 414.39 38.81 414.31 19.53 356.21 0 329.05 13.9 329.05 102.9"/><polygon class="cls-2" points="390.13 108.56 378.31 105.15 378.47 41.22 428.21 41.06 428.37 46.85 414.79 46.85 414.79 123.91 407.56 118.53 407.56 46.77 390.04 46.77 390.13 108.56"/><polygon class="cls-2" points="432.51 126.16 425.36 126.16 425.28 65.25 450.43 49.74 479.76 78.35 479.76 126.8 472.89 126.8 472.81 81.44 460.36 68.26 460.36 127.12 447.52 127.12 447.52 62.56 432.69 70.57 432.51 126.16"/><rect class="cls-1" x="490.79" y="95.18" width="6.34" height="31.36"/><path class="cls-2" d="M291.59,130.48c36.19-26.12,84.86-27.61,120.53.32,0,0-24.45-10.57-60.77-10.57,0,0-19.26-.92-58.8,10.17l-1.25.42Z"/><path class="cls-2" d="M67.49,145.09c5.49,2.14,124.57,2.21,141.42,2.37,47.92.46,95.72.59,143.84.54s96.21-.14,143.84-.54c47.87-.4,96.47.14,144.32-1.6l-7.7-1.76c-41.27-2.5-92.2-3.4-133.59-4.64-96.17-2.88-193.49-2.64-289.68-.4-18.92.44-133.72,2.65-142.45,6"/><path class="cls-3" d="M130.68,287.75c29.79.17,551.17,2.37,566.38-2.69-54.36-1.81-131.43-.64-188.9-.72-116.69-.15-237.38.88-353.7.07L0,284.73c7,3.22,113.55,2.95,130.68,3"/><path class="cls-4" d="M26,246C38.5,227,52,206.69,64.16,186.87a3.76,3.76,0,0,0,.71-1.68c0-.44-.62-.71-1.51-.71h-27c-3.63,0-7.88.09-16.29-.26-2.21-.09-2.74-.62-3.54-.62-.53,0-.88.44-1.06,1.68-.44,2.65-1.77,10.7-1.77,12.74,0,1.06.09,1.5.71,1.5s.89-.35,1.06-1.59a10,10,0,0,1,4.78-6.9c2.83-1.59,8.23-1.86,12.74-1.86H50.36c-11.86,18.67-25,38.67-37.43,58.14-1.06,1.59-1.33,2-1.33,2.65s.53.89,1.5.89c17.88,0,32.74.44,47.52.44,1.59,0,2.21-.71,2.66-2.3a56.13,56.13,0,0,0,1.77-10.8c0-2.12-.18-2.74-.89-2.74-.53,0-.71.53-.88,1.42a15.86,15.86,0,0,1-1.6,4.24c-1.41,2.66-4.86,4.87-13.89,4.87Z"/><path class="cls-4" d="M120,247.93c-17,0-27.16-14.6-27.16-33,0-22,11.59-27.7,21.76-27.7,14.52,0,25.93,12.3,25.93,32.13,0,25.57-14.33,28.58-20.53,28.58m-3.71,4.42c22.47,0,36.63-16,36.63-36.28S139.24,183,117.21,183c-26.55,0-36.54,19.55-36.54,34.68C80.67,233.33,90.93,252.35,116.33,252.35Z"/><path class="cls-4" d="M178.05,225.45c0,8.14,0,15.13-.44,18.85-.36,2.57-.8,4.51-2.57,4.87a15,15,0,0,1-3.19.35c-1.06,0-1.41.27-1.41.71,0,.62.62.88,1.77.88,1.77,0,4.07-.17,6.1-.17s4.07-.09,5.05-.09c2.65,0,5.39.09,9.2.26s8.67.27,15.31.27c3.36,0,4.16,0,4.78-2.3a69.81,69.81,0,0,0,1.15-9.82c0-.89,0-1.6-.71-1.6s-.8.36-1,1.33c-.62,3.63-1.69,5.49-4,6.55s-6,1.06-8.31,1.06c-9,0-10.45-1.33-10.62-7.43-.09-2.57,0-10.71,0-13.72v-7c0-.53.09-.88.53-.88,2.12,0,10.88.08,12.56.26,3.28.36,4.52,1.68,5,3.45a24.34,24.34,0,0,1,.35,3.19.7.7,0,0,0,.8.79c.8,0,.8-1,.8-1.68s.26-4.16.35-5.93c.35-4.51.71-5.92.71-6.46s-.27-.7-.62-.7-.8.44-1.42,1.15c-.79.88-2.12,1.15-4.25,1.32s-12.21.18-14.15.18c-.53,0-.62-.35-.62-1V189.79c0-.62.17-.88.62-.88,1.77,0,11.06.17,12.56.35,4.43.53,5.31,1.59,5.93,3.19a9.52,9.52,0,0,1,.53,3.18c0,.8.18,1.24.8,1.24s.79-.53.88-1c.18-1.07.36-5,.45-5.84a56.86,56.86,0,0,1,.7-5.76c0-.44-.09-.79-.53-.79a8.07,8.07,0,0,0-1.41.35,33.19,33.19,0,0,1-3.81.53c-1.68.09-19.29.09-22.12.09-1.24,0-3.27-.09-5.58-.18s-4.77-.08-7.16-.08c-1.33,0-1.95.17-1.95.79s.53.8,1.5.8a19,19,0,0,1,3.46.26c2.92.62,3.62,2,3.8,5.05.18,2.83.18,5.31.18,18.76Z"/><path class="cls-4" d="M251.54,235.45c0,1.42,0,5.13-.27,8.85-.17,2.57-1,4.51-2.74,4.87a14.75,14.75,0,0,1-3.1.35c-1,0-1.41.27-1.41.71,0,.71.7.88,1.94.88,3.28,0,8.85-.26,11.06-.26,2.39,0,8,.26,13.54.26,1.15,0,1.86-.26,1.86-.88,0-.44-.44-.71-1.41-.71a38.87,38.87,0,0,1-4.43-.35c-2.65-.36-3.45-2.3-3.63-4.87-.26-3.72-.26-7.43-.26-8.85v-7.26c0-2.92,0-5.66,1.32-8.84,1.6-3.81,14-24.6,16.91-28.14,1.94-2.39,2.92-3.45,4.77-4.34a9.54,9.54,0,0,1,3.9-1.06c1,0,1.68-.27,1.68-.89s-.62-.7-1.59-.7c-1.68,0-7.53.26-9.47.26-2.57,0-5.4-.26-8.32-.26-1.06,0-1.5.17-1.5.79s.79.71,1.59.89a2.11,2.11,0,0,1,1.86,2.21,11.63,11.63,0,0,1-1.24,4.6c-1.24,2.74-12.39,22.21-13.27,24.33-1.42-2.47-13.81-23.8-15-26.45a8.16,8.16,0,0,1-1.06-3,1.59,1.59,0,0,1,1.24-1.59c1.33-.36,1.95-.45,1.95-1s-.45-.79-1.33-.79c-4,0-7.61.26-9.47.26-2.92,0-9.56-.26-11.15-.26-1.06,0-1.68.26-1.68.79s.62.8,1.33.8a9,9,0,0,1,3.71,1.15,21.51,21.51,0,0,1,6.11,6.46c3.1,4.6,14.95,24.07,15.57,25.48a18.79,18.79,0,0,1,2,9.29Z"/><path class="cls-4" d="M339.54,179.71a5,5,0,0,0,5-5.31,4.72,4.72,0,0,0-5-4.78,4.89,4.89,0,0,0-5,5.14,4.75,4.75,0,0,0,5,5"/><path class="cls-4" d="M334.05,225.45c0,8.58,0,15.57-.44,19.29-.26,2.57-.79,4.07-2.56,4.43a15,15,0,0,1-3.19.35c-1.06,0-1.42.27-1.42.71,0,.62.62.88,1.77.88,3.54,0,9.12-.26,11.15-.26,2.39,0,8,.26,13.81.26,1,0,1.68-.26,1.68-.88,0-.44-.44-.71-1.42-.71a38.85,38.85,0,0,1-4.51-.35c-2.65-.36-3.27-1.95-3.54-4.34C345,241,345,234,345,225.45V209.88c0-13.45,0-15.93.17-18.76.18-3.1.89-4.6,3.28-5.05a15.57,15.57,0,0,1,2.65-.26c.89,0,1.42-.18,1.42-.89,0-.53-.71-.7-1.86-.7-3.36,0-8.58.26-10.8.26-2.56,0-8.14-.26-11.5-.26-1.41,0-2.12.17-2.12.7,0,.71.53.89,1.41.89a12.84,12.84,0,0,1,3.19.35c1.95.44,2.83,2,3,5,.17,2.83.17,5.31.17,18.76Z"/><path class="cls-4" d="M384.66,201.91h.26c1.59,1.68,11.42,12.75,21.05,22.3,9.2,9.12,20.53,20.71,26.09,26,1,1,2,1.94,3,1.94.8,0,1.15-.79,1.15-2.74l1-55.83c.09-5,.79-6.82,3.27-7.53a9.85,9.85,0,0,1,2.66-.26c1.06,0,1.59-.27,1.59-.8,0-.71-.89-.79-2-.79-4.33,0-7.69.26-8.67.26-1.86,0-6.1-.26-10.69-.26-1.33,0-2.3.08-2.3.79,0,.53.35.8,1.42.8a14.32,14.32,0,0,1,4.67.53c2.12.88,2.92,2.57,3,8L431,234h-.44c-1.5-1.41-13.43-14.15-19.45-20.17-12.91-12.83-26.36-27.26-27.42-28.41-1.52-1.59-2.31-2.74-3.29-2.74s-1.15,1.24-1.15,3l-.79,52.38c-.09,7.7-.45,10.27-2.75,11a15.87,15.87,0,0,1-4,.44c-.88,0-1.41.18-1.41.71,0,.79.79.88,1.94.88,4.6,0,8.76-.26,9.56-.26,1.7,0,5.23.26,11,.26,1.24,0,2-.17,2-.88,0-.53-.53-.71-1.5-.71a14,14,0,0,1-4.6-.62c-1.77-.62-2.92-2.92-3.1-9.82Z"/><path class="cls-4" d="M479.09,252.35a25.6,25.6,0,0,0,14.07-3.63,17.83,17.83,0,0,0,8.32-15.39c0-8.41-3.81-14.52-14.52-22.57l-2.47-1.86c-7.35-5.57-9.38-8.67-9.38-12.74,0-5.31,4-9.11,10.53-9.11,5.75,0,8.31,2.65,9.64,4.33a10.71,10.71,0,0,1,2.3,5.84c0,1.07.27,1.6.89,1.6s1-.71,1-2.66c0-6.9.35-9.47.35-10.62,0-.62-.44-.88-1.23-1.06a42.93,42.93,0,0,0-11.77-1.5c-12.3,0-20.44,7-20.44,16.72,0,7.17,3.36,13.36,13.09,21l4.07,3.19c7.35,5.75,8.67,9.82,8.67,14.16,0,4.69-3.89,10.08-11.85,10.08-5.49,0-10.71-2.39-12.66-8.93a18.87,18.87,0,0,1-.79-4.52c0-.7-.09-1.5-.89-1.5s-1,1-1.06,2.3-.44,6.73-.44,11.59c0,2,.26,2.39,1.68,3,3.8,1.68,7.79,2.3,12.92,2.3"/><path class="cls-4" d="M534.44,223.59c-.36,0-.44-.26-.36-.62l8.15-21.76c.08-.36.26-.8.53-.8s.35.44.44.8l8,21.85c.09.27,0,.53-.44.53Zm18,4.43a.85.85,0,0,1,.89.62l7.08,18.76a1.44,1.44,0,0,1-.8,2c-.89.09-1.24.27-1.24.8s1.06.62,2.65.71c7.08.17,13.54.17,16.73.17s4.07-.17,4.07-.88-.44-.71-1.15-.71a19.9,19.9,0,0,1-3.72-.35c-1.86-.54-4.42-1.76-7.78-9.69-5.67-13.41-19.83-49.51-22-54.38-.88-2-1.42-2.83-2.21-2.83s-1.42,1-2.48,3.54l-22.21,55.57c-1.77,4.42-3.45,7.43-7.52,8a26.45,26.45,0,0,1-2.74.18c-.71,0-1.07.18-1.07.71,0,.71.53.88,1.69.88,4.6,0,9.46-.26,10.44-.26,2.74,0,6.55.26,9.38.26,1,0,1.5-.17,1.5-.88,0-.53-.26-.71-1.33-.71h-1.32c-2.75,0-3.54-1.15-3.54-2.74a17.19,17.19,0,0,1,1.32-5.4l4.78-12.66c.18-.53.36-.7.8-.7Z"/><path class="cls-4" d="M603,223.59c-.35,0-.44-.26-.35-.62l8.14-21.76c.09-.36.27-.8.53-.8s.36.44.44.8l8,21.85c.09.27,0,.53-.44.53Zm18,4.43a.84.84,0,0,1,.88.62l7.08,18.76a1.44,1.44,0,0,1-.8,2c-.88.09-1.23.27-1.23.8s1.06.62,2.65.71c7.08.17,13.54.17,16.72.17s4.07-.17,4.07-.88-.44-.71-1.15-.71a19.8,19.8,0,0,1-3.71-.35c-1.86-.54-4.43-1.76-7.79-9.69C632,226.07,617.84,190,615.72,185.1c-.89-2-1.42-2.83-2.22-2.83s-1.41,1-2.47,3.54l-22.21,55.57c-1.77,4.42-3.46,7.43-7.53,8a26.08,26.08,0,0,1-2.74.18c-.71,0-1.06.18-1.06.71,0,.71.53.88,1.68.88,4.6,0,9.47-.26,10.44-.26,2.75,0,6.55.26,9.38.26,1,0,1.51-.17,1.51-.88,0-.53-.27-.71-1.33-.71h-1.33c-2.74,0-3.54-1.15-3.54-2.74a17,17,0,0,1,1.33-5.4l4.78-12.66c.17-.53.35-.7.79-.7Z"/><path class="cls-4" d="M672.22,225.45c0,8.14,0,15.13-.45,18.85-.26,2.57-.79,4.51-2.56,4.87a15,15,0,0,1-3.19.35c-1.06,0-1.41.27-1.41.71,0,.62.62.88,1.77.88,3.54,0,9.11-.26,11.15-.26,2.47,0,8.05.26,13.89.26,1,0,1.68-.26,1.68-.88,0-.44-.44-.71-1.42-.71a38.85,38.85,0,0,1-4.51-.35c-2.65-.36-3.18-2.3-3.45-4.78-.44-3.81-.44-10.8-.44-18.94V189.17l11.15.27c7.87.17,10.26,2.65,10.44,4.95l.09,1c.09,1.32.26,1.76,1,1.76.53,0,.71-.53.8-1.41,0-2.3.26-8.41.26-10.27,0-1.32-.09-1.85-.71-1.85a19.81,19.81,0,0,0-2.38.44,42.16,42.16,0,0,1-6.11.44h-35c-2.92,0-6.28-.18-8.85-.44-2.21-.18-3.1-1.06-3.81-1.06-.53,0-.79.53-1.06,1.68-.17.71-1.86,8.76-1.86,10.17,0,1,.18,1.42.8,1.42s.8-.35,1-1.06a10.49,10.49,0,0,1,1.51-3.1c1.33-2,3.45-2.39,8.58-2.57l13.19-.35Z"/><path class="cls-4" d="M479.59,267.36a5.4,5.4,0,0,0,5.49-5.67,5.1,5.1,0,0,0-5.4-5.13,5.33,5.33,0,0,0-5.4,5.4,5.16,5.16,0,0,0,5.31,5.4"/></g></g></svg>